<?xml version="1.0" encoding="UTF-8" standalone="yes"?><svg xmlns="http://www.w3.org/2000/svg" xmlns:xlink="http://www.w3.org/1999/xlink" version="1.2" baseProfile="tiny" x="0" y="0" width="256" height="256" viewBox="0 0 256 256"><defs/><defs/><defs/><defs/><defs/><g transform="matrix(9.1453,0,0,9.1453,-27.4359,-18.3244)"><g id="Page-1" fill="none" fill-rule="evenodd"><g id="分组-117" fill="#262626" fill-rule="nonzero" transform="matrix(1,0,0,1,1,2)"><g id="yingyongguanli" transform="matrix(1,0,0,1,2,0)"><path id="形状" fill="#ffffff" fill-opacity="1" stroke-width="9.14254" d="M 1.94571 1.76955 L 10.2383 1.76955 C 11.3129 1.76955 12.184 2.63411 12.184 3.70059 L 12.184 11.9307 C 12.184 12.9971 11.3129 13.8617 10.2383 13.8617 L 1.94571 13.8617 C 0.871125 13.8617 0 12.9971 0 11.9307 L 0 3.70059 C -2.16017e-16 2.63411 0.871125 1.76955 1.94571 1.76955 M 1.94571 15.8777 L 10.2383 15.8777 C 11.3129 15.8777 12.184 16.7422 12.184 17.8087 L 12.184 26.0388 C 12.184 27.1053 11.3129 27.9698 10.2383 27.9698 L 1.94571 27.9698 C 0.871125 27.9698 0 27.1053 0 26.0388 L 0 17.8087 C -2.16017e-16 16.7422 0.871125 15.8777 1.94571 15.8777 M 16.1611 15.8777 L 24.4537 15.8777 C 25.5283 15.8777 26.3994 16.7422 26.3994 17.8087 L 26.3994 26.0388 C 26.3994 27.1053 25.5283 27.9698 24.4537 27.9698 L 16.1611 27.9698 C 15.0865 27.9698 14.2154 27.1053 14.2154 26.0388 L 14.2154 17.8087 C 14.2154 16.7422 15.0865 15.8777 16.1611 15.8777"/><path id="形状" fill="#ffffff" fill-opacity="1" stroke-width="9.14254" d="M 20.5428 4.69121 L 17.7916 7.42169 L 20.5428 10.1522 L 23.2941 7.42169 L 20.5428 4.69121 M 21.9184 0.595483 L 27.4229 6.05645 C 28.1824 6.81052 28.1824 8.03286 27.4229 8.78693 L 21.9184 14.2498 C 21.1586 15.0037 19.927 15.0037 19.1672 14.2498 L 13.6647 8.78693 C 12.9052 8.03286 12.9052 6.81052 13.6647 6.05645 L 19.1653 0.595483 C 19.9251 -0.158358 21.1567 -0.158358 21.9165 0.595483 L 21.9184 0.595483"/></g></g><g id="IIIII-Copy-15"/></g></g></svg>
