<?xml version="1.0" encoding="UTF-8" standalone="yes"?><svg xmlns="http://www.w3.org/2000/svg" xmlns:xlink="http://www.w3.org/1999/xlink" version="1.2" baseProfile="tiny" x="0" y="0" width="256" height="256" viewBox="0 0 256 256"><defs/><defs/><defs/><defs/><defs/><g transform="matrix(9.1484,0,0,9.1484,-18.4001,-18.2968)"><g id="Page-1" fill="none" fill-rule="evenodd"><g id="分组-117" fill="#262626" fill-rule="nonzero" transform="matrix(1,0,0,1,-127,-62)"><g id="gerenxinxi" transform="matrix(1,0,0,1,129,64)"><path id="形状" fill="#ffffff" fill-opacity="1" stroke-width="9.14552" d="M 25.4171 0 L 20.4544 0 L 20.319 0 L 4.39315 0.0452069 C 2.99456 0.0452069 1.86667 1.17538 1.86667 2.57679 L 1.86667 6.37417 L 4.75408 6.37417 C 5.29547 6.37417 5.70151 6.78103 5.70151 7.32351 L 5.70151 7.95641 C 5.70151 8.49889 5.29547 8.90575 4.75408 8.90575 L 4.43827 8.90575 L 4.43827 8.5893 C 4.43827 8.04682 4.03223 7.63996 3.49084 7.63996 L 0.874119 7.63996 C 0.513192 7.68517 0.197382 7.9112 0.0620342 8.27286 C 0.0169184 8.36327 0.0169184 8.49889 0.0169184 8.5893 L 0.0169184 9.2222 C 0.0169184 9.76468 0.422961 10.1715 0.96435 10.1715 L 1.91178 10.1715 L 1.91178 17.1786 L 4.79919 17.1786 C 5.34058 17.1786 5.74663 17.5855 5.74663 18.128 L 5.74663 18.7608 C 5.74663 19.3033 5.34058 19.7102 4.79919 19.7102 L 4.48338 19.7102 L 4.48338 19.439 C 4.48338 18.8965 4.07734 18.4896 3.53595 18.4896 L 0.919235 18.4896 C 0.558308 18.5348 0.242497 18.7608 0.10715 19.1225 C 0.0620342 19.2129 0.0620342 19.3485 0.0620342 19.439 L 0.0620342 20.0718 C 0.0620342 20.6143 0.468077 21.0212 1.00947 21.0212 L 1.9569 21.0212 L 1.9569 25.4515 C 1.9569 26.8529 3.08479 27.983 4.48338 27.983 L 25.4622 27.983 C 26.8608 27.983 27.9887 26.8529 27.9887 25.4515 L 27.9887 2.53158 C 27.9436 1.13017 26.8157 0 25.4171 0 M 23.5674 20.7047 C 23.5674 20.7047 23.5223 20.7952 23.5223 20.8404 C 23.4771 20.9308 23.3418 21.0664 23.2516 21.1568 L 22.9809 21.2924 L 22.8004 21.3376 L 9.17543 21.3376 C 9.0852 21.2924 8.94985 21.2472 8.85962 21.202 C 8.76939 21.1568 8.67915 21.0212 8.63404 20.8856 C 8.63404 20.8404 8.58892 20.7499 8.58892 20.7499 C 8.54381 20.7047 8.40846 20.1171 8.58892 19.4842 L 8.58892 19.439 L 8.63404 19.3937 C 9.0852 18.8061 10.168 18.1732 11.341 17.5403 C 12.4238 16.9526 14.0028 16.0484 14.0028 15.5964 L 14.0028 15.3251 C 14.0028 15.1895 13.9577 15.0991 13.8675 15.0087 C 12.92 14.0593 12.4238 12.7483 12.4238 11.3469 C 12.4238 9.08658 12.8749 6.73582 16.0781 6.73582 C 19.2814 6.73582 19.7325 9.04137 19.7325 11.3469 C 19.7325 12.7483 19.2363 14.0593 18.2888 15.0087 C 18.1986 15.0991 18.1535 15.1895 18.1535 15.3251 L 18.1535 15.5964 C 18.1535 16.0484 19.7776 16.9526 20.8153 17.5403 C 21.9883 18.1732 23.0711 18.8061 23.5223 19.3937 L 23.5674 19.439 L 23.5674 19.4842 C 23.793 20.0718 23.6125 20.6595 23.5674 20.7047"/></g></g><g id="IIIII-Copy-15" transform="matrix(1,0,0,1,-128,-64)"/></g></g></svg>
