<?xml version="1.0" encoding="UTF-8" standalone="yes"?><svg xmlns="http://www.w3.org/2000/svg" xmlns:xlink="http://www.w3.org/1999/xlink" version="1.2" baseProfile="tiny" x="0" y="0" width="256" height="256" viewBox="0 0 256 256"><defs/><defs/><defs/><defs/><defs/><g transform="matrix(9.15087,0,0,9.15087,-18.5261,-18.4243)"><g id="Page-1" fill="none" fill-rule="evenodd"><g id="分组-117" fill="#262626" fill-rule="nonzero" transform="matrix(1,0,0,1,-63,-190)"><g id="yejiguanli" transform="matrix(1,0,0,1,65,193)"><path id="形状" fill="#ffffff" fill-opacity="1" stroke-width="9.97938" d="M 24.7172 0.0157484 L 3.23599 0.0157484 C 1.45185 0.0157484 0.0245209 1.45455 0.0245209 3.2531 L 0.0245209 17.2097 C 0.0245209 19.0082 1.45185 20.447 3.23599 20.447 L 11.3004 20.447 L 11.3004 24.4038 L 6.87566 24.4038 C 6.44746 24.4038 6.09065 24.7635 6.09065 25.1951 C 6.09065 25.6268 6.44746 25.9865 6.87566 25.9865 L 20.5066 25.9865 C 20.9348 25.9865 21.2916 25.6268 21.2916 25.1951 C 21.2916 24.7635 20.9348 24.4038 20.5066 24.4038 L 16.1533 24.4038 L 16.1533 20.447 L 24.7885 20.447 C 26.5727 20.447 28 19.0082 28 17.2097 L 28 3.2531 C 27.9286 1.52651 26.5013 0.0157484 24.7172 0.0157484 M 23.2898 4.8358 C 23.2898 4.8358 23.2898 4.90773 23.2898 4.8358 L 23.2898 4.90773 L 15.2969 15.627 L 15.0828 15.4831 L 8.80254 10.8789 L 6.5902 13.7565 C 6.37611 14.1162 5.94791 14.2601 5.59107 14.1162 C 5.16287 13.9723 4.94877 13.4687 5.09152 13.0371 C 5.09152 12.9652 5.09152 12.9652 5.16287 12.8932 L 8.16024 8.93645 L 8.44573 8.57673 L 14.94 13.3968 L 22.0053 3.9725 C 22.2194 3.75668 22.5762 3.68475 22.8616 3.82861 C 23.2898 3.9725 23.5039 4.40415 23.2898 4.8358"/></g></g><g id="IIIII-Copy-15" transform="matrix(1,0,0,1,-64,-192)"/></g></g></svg>
